PathFileType	4	(X/Y/Z)	C:\Users\Basilio\Documents\Thesis Gigler\squatting_fais\c3dfiles\040\SLS_pre_back2\markers_experimental.trc
DataRate	CameraRate	NumFrames	NumMarkers	Units	OrigDataRate	OrigDataStartFrame	OrigNumFrames
200.000000	200.000000	4	63	mm	200.000000	911	1459
Frame#	Time	FHD			LBHD			RBHD			C7			T10			CLAV			LSHO			LUUPA			LMUPA			LDUPA			LLEP			LMEP			LRAD			LUL			LRFIN			RSHO			RUPA1			RMUPA			RDUPA			RLEP			RMEP			RRAD			RUL			RUFIN			LASI			RASI			USACR			LSACR			RSACR			LTHI1			LTHI2			LTHI3			LTHI4			LLFC			LMFC			LTIB1			LTIB2			LTIB3			LTIB4			LLMAL			LMMAL			LHEE			LMT1			LMT2			LMT5			RTHI			RTHI2			RTHI3			RTHI4			RLFC			RMFC			RTIB1			RTIB2			RTIB3			RTIB4			RLMAL			RMMAL			RHEE			RMT1			RMT2			RMT5			*61			*62			
		X1	Y1	Z1	X2	Y2	Z2	X3	Y3	Z3	X4	Y4	Z4	X5	Y5	Z5	X6	Y6	Z6	X7	Y7	Z7	X8	Y8	Z8	X9	Y9	Z9	X10	Y10	Z10	X11	Y11	Z11	X12	Y12	Z12	X13	Y13	Z13	X14	Y14	Z14	X15	Y15	Z15	X16	Y16	Z16	X17	Y17	Z17	X18	Y18	Z18	X19	Y19	Z19	X20	Y20	Z20	X21	Y21	Z21	X22	Y22	Z22	X23	Y23	Z23	X24	Y24	Z24	X25	Y25	Z25	X26	Y26	Z26	X27	Y27	Z27	X28	Y28	Z28	X29	Y29	Z29	X30	Y30	Z30	X31	Y31	Z31	X32	Y32	Z32	X33	Y33	Z33	X34	Y34	Z34	X35	Y35	Z35	X36	Y36	Z36	X37	Y37	Z37	X38	Y38	Z38	X39	Y39	Z39	X40	Y40	Z40	X41	Y41	Z41	X42	Y42	Z42	X43	Y43	Z43	X44	Y44	Z44	X45	Y45	Z45	X46	Y46	Z46	X47	Y47	Z47	X48	Y48	Z48	X49	Y49	Z49	X50	Y50	Z50	X51	Y51	Z51	X52	Y52	Z52	X53	Y53	Z53	X54	Y54	Z54	X55	Y55	Z55	X56	Y56	Z56	X57	Y57	Z57	X58	Y58	Z58	X59	Y59	Z59	X60	Y60	Z60	X61	Y61	Z61	X62	Y62	Z62	X63	Y63	Z63	

912	4.555	60.69313812255861	1357.878295898438	-1223.138916015625	-62.79055404663087	1309.33349609375	-1269.255004882813	-122.3990554809571	1271.495361328125	-1139.515502929688	-137.6664428710938	1201.618408203125	-1188.664184570313	-366.7195739746094	1009.245666503906	-1168.738647460938	-62.77646255493165	1080.626098632813	-1193.494873046875	-75.13768768310548	1175.837524414063	-1316.056640625	66.72694396972658	1128.5830078125	-1399.012451171875	96.48118591308597	1130.56298828125	-1358.70947265625	132.8480987548828	1105.48779296875	-1402.72265625	185.5672149658203	1071.145263671875	-1407.148193359375	166.363754272461	1014.372436523438	-1380.470703125	452.4493408203126	1039.620239257813	-1289.908935546875	461.9394531250001	1047.684814453125	-1365.797485351563	543.4365234375001	1048.802124023438	-1284.031860351563	-59.94094085693361	1166.833862304688	-1073.183349609375	75.60493469238283	1094.877319335938	-984.8670043945315	107.2608413696289	1108.935546875	-1019.24365234375	139.9222564697266	1068.211669921875	-988.9782714843752	200.6493530273438	1050.103759765625	-1000.259765625	181.6461791992188	989.677917480469	-1040.870483398438	457.3961181640626	1049.3349609375	-1147.095703125	471.1015014648439	1039.026123046875	-1073.370971679688	549.0259399414064	1055.894775390625	-1153.029174804688	-341.7864379882813	789.131530761719	-1262.383056640625	-360.1136474609376	768.0433349609377	-1045.18115234375	-488.4729309082032	906.3933715820315	-1158.056396484375	-514.2988891601564	887.4797363281252	-1188.953125	-518.2329711914064	883.586120605469	-1133.863159179688	-323.4609985351563	601.6277465820314	-1319.973999023438	-239.4909362792969	585.5984497070314	-1316.329956054688	-211.1034088134766	622.2300415039064	-1315.300415039063	-213.0659179687501	535.0858764648439	-1296.590698242188	-114.9565734863282	470.1167602539064	-1263.524536132813	-138.5873718261719	467.8300781250001	-1145.725708007813	-161.5363311767578	267.7952270507813	-1193.625732421875	-234.3655700683594	259.1379699707032	-1245.941040039063	-201.9942932128907	238.5354461669922	-1221.008422851563	-241.1249542236329	172.1254272460938	-1179.7177734375	-341.8583679199219	122.8082504272461	-1202.619995117188	-312.9945678710938	136.8311767578125	-1116.965698242188	-416.3838806152345	96.92219543457034	-1155.727783203125	-202.6952056884766	52.60043334960939	-1132.357055664063	-202.9541473388672	49.74275588989259	-1177.361450195313	-254.6821441650391	39.63636779785157	-1227.534057617188	-452.2734375000001	529.7737426757814	-976.1075439453127	-426.437713623047	468.1896972656251	-978.9305419921877	-394.950897216797	464.7073669433595	-987.1721801757815	-468.4565429687501	395.8707885742189	-984.5968017578127	-487.6819152832032	296.9033203125001	-994.4571533203127	-505.9753417968751	299.2159118652344	-1124.71240234375	-659.2005615234376	243.1563110351563	-1019.803466796875	-724.5354003906251	323.7096252441407	-981.3247070312502	-734.6363525390626	280.5427246093751	-996.077087402344	-783.7541503906252	273.5595092773438	-1028.576904296875	-892.0629882812502	336.6865844726563	-995.8226318359377	-883.5733032226565	330.8202209472657	-1086.088989257813	-923.825378417969	414.809295654297	-1043.060668945313	-974.3730468750002	203.7097473144532	-1087.116088867188	-974.7221679687502	197.3406219482422	-1047.263305664063	-994.669860839844	234.6826324462891	-992.2742309570315	nan	nan	nan	nan	nan	nan	
913	4.56	59.80398559570314	1360.402709960938	-1223.105346679688	-63.71287536621095	1311.67919921875	-1269.213012695313	-123.2991104125977	1273.74365234375	-1139.552734375	-138.2952270507813	1203.715698242188	-1188.699340820313	-366.9450988769532	1010.411926269531	-1169.111450195313	-63.28273010253908	1083.044311523438	-1193.62109375	-76.19860076904298	1178.19873046875	-1316.3623046875	66.29064941406251	1130.8330078125	-1399.046630859375	94.93430328369142	1132.84228515625	-1358.684326171875	131.789535522461	1107.931030273438	-1402.624267578125	184.5779113769532	1073.632690429688	-1407.266845703125	165.8269805908203	1016.345458984375	-1380.472412109375	451.6514892578126	1041.916748046875	-1289.832153320313	461.3658447265626	1050.079833984375	-1365.638549804688	543.0238647460939	1051.097778320313	-1283.803588867188	-60.79085922241212	1168.773803710938	-1073.456298828125	74.83440399169923	1096.660766601563	-984.685974121094	106.9608764648438	1110.690795898438	-1019.140686035156	140.1849365234375	1070.772338867188	-988.157409667969	199.9790496826172	1051.940307617188	-1000.217834472656	180.9071044921875	990.8647460937502	-1040.525390625	456.5094299316407	1051.596435546875	-1146.912719726563	470.6854858398439	1041.68896484375	-1073.271362304688	548.5300292968751	1058.237182617188	-1152.964233398438	-341.9229125976563	789.2924804687502	-1262.375610351563	-359.8410644531251	769.3472900390627	-1045.11181640625	-487.7896728515626	907.0408935546877	-1158.165405273438	-514.1381835937501	888.5899047851565	-1189.022216796875	-518.0092163085939	884.7540283203127	-1133.963745117188	-323.4656372070313	602.3391723632814	-1319.969848632813	-239.5670776367188	586.0938720703126	-1316.293823242188	-211.2902374267579	622.8961181640626	-1315.404663085938	-213.1532135009766	535.4490966796876	-1296.788818359375	-115.1224975585938	470.3045654296876	-1263.48583984375	-139.0655670166016	468.1686401367189	-1145.526489257813	-161.6984405517578	267.9480285644532	-1193.671508789063	-234.4728240966797	259.2019348144532	-1245.9228515625	-202.1618347167969	238.5594024658204	-1221.099853515625	-241.0499877929688	171.4040069580078	-1180.269409179688	-341.9230651855469	122.8102340698242	-1202.6591796875	-312.9672851562501	136.7579956054688	-1116.923583984375	-416.3375549316407	96.84979248046878	-1155.717041015625	-202.5314331054688	52.46144485473634	-1132.387084960938	-202.9225463867188	49.68074417114259	-1177.267211914063	-254.6644592285157	39.61185836791993	-1227.495971679688	-451.3755187988282	531.4116210937501	-975.9881591796877	-425.5198974609376	469.3812561035157	-978.9420166015627	-393.7827453613282	465.9436645507814	-988.2669677734377	-467.2820434570314	397.0755310058595	-984.3618164062502	-486.8188476562501	298.1580505371094	-994.1314086914065	-504.9807128906251	300.4760437011719	-1124.480346679688	-658.1530761718751	244.9892883300782	-1019.071594238281	-723.7023315429689	325.0304870605469	-981.1856079101565	-733.8085327148439	281.6226806640626	-995.8816528320315	-782.931823730469	275.6701049804688	-1028.438598632813	-891.2615356445315	338.2076110839844	-995.989440917969	-882.4582519531252	332.1984863281251	-1086.180541992188	-922.893005371094	416.1968994140626	-1043.320190429688	-973.2709960937502	205.0711517333985	-1087.38427734375	-973.6129150390627	198.6766052246094	-1046.753784179688	-994.1002197265627	237.1329650878907	-992.3400878906252	nan	nan	nan	nan	nan	nan	
914	4.565	58.71443939208986	1363.136474609375	-1223.0947265625	-64.76313781738283	1314.271362304688	-1269.135009765625	-124.1941375732422	1276.002319335938	-1139.531127929688	-138.8658599853516	1205.741455078125	-1188.867431640625	-367.1460266113282	1011.746520996094	-1169.119018554688	-63.64662170410158	1085.343627929688	-1193.7578125	-76.46191406250001	1180.173828125	-1316.354858398438	65.48873901367189	1133.054077148438	-1399.121826171875	95.30598449707033	1134.989868164063	-1358.943481445313	131.6325073242188	1109.827758789063	-1402.657836914063	184.4692077636719	1075.742431640625	-1407.198364257813	165.286117553711	1018.600280761719	-1380.704956054688	451.2214965820314	1044.572631835938	-1289.739868164063	460.2423400878907	1052.843994140625	-1365.531005859375	542.0322265625001	1053.5302734375	-1283.185913085938	-61.28755950927736	1170.927612304688	-1073.379150390625	74.50617980957033	1098.79736328125	-984.635681152344	106.2285308837891	1112.69287109375	-1019.28955078125	139.5475769042969	1072.593383789063	-987.959411621094	199.4646301269532	1054.102905273438	-1000.327392578125	180.47705078125	993.0506591796877	-1040.598999023438	456.6320190429689	1053.895874023438	-1147.451782226563	469.8362121582032	1043.890869140625	-1072.976318359375	547.9575195312501	1060.590698242188	-1152.902465820313	-341.2198181152344	790.8358154296877	-1262.346313476563	-359.4566040039063	770.4019165039065	-1045.097900390625	-487.5459594726564	908.2138671875002	-1158.2666015625	-513.8262939453126	889.6018676757815	-1189.159912109375	-517.9364013671876	885.9110107421877	-1134.492553710938	-323.4296569824219	603.1118164062501	-1320.094970703125	-239.4363555908204	586.6472167968751	-1316.267944335938	-211.0400390625001	623.1903686523439	-1315.393432617188	-212.7620239257813	535.4523315429689	-1296.836181640625	-115.4738082885742	470.4973144531251	-1263.517333984375	-139.331527709961	468.4855346679689	-1145.550170898438	-161.73291015625	268.0117492675782	-1193.70849609375	-234.7001953125001	259.3407592773438	-1245.9853515625	-202.318099975586	238.602523803711	-1221.161987304688	-241.1569976806641	171.6711578369141	-1180.382690429688	-341.8996887207032	122.7942886352539	-1202.649169921875	-312.9859008789063	136.7476348876953	-1116.974731445313	-416.3054809570314	96.8864440917969	-1155.739135742188	-202.6276550292969	52.28438186645509	-1132.330932617188	-202.8995971679688	49.65619277954103	-1177.304931640625	-254.6478881835938	39.57633590698243	-1227.507690429688	-450.530975341797	532.7498168945314	-975.8010253906252	-424.9905395507814	471.072479248047	-978.9173583984377	-392.8388061523439	467.1190490722657	-987.3505859375002	-466.7494201660157	398.5045166015626	-984.0955810546877	-486.1609497070314	299.1544799804688	-994.128601074219	-503.704803466797	301.2933654785157	-1124.30419921875	-656.9570922851564	246.7819519042969	-1017.930053710938	-723.0346679687501	326.7102661132813	-981.250183105469	-733.0535278320314	283.0835571289063	-995.4666137695315	-782.1743774414065	276.9956054687501	-1028.64208984375	-890.3536376953127	339.7599182128907	-996.1043090820315	-880.7896118164065	332.5384216308594	-1086.161376953125	-921.720642089844	417.6231994628907	-1043.584106445313	-972.233581542969	205.7045440673829	-1086.846557617188	-972.6595458984377	199.9723815917969	-1047.025512695313	-992.9976806640627	237.9857177734376	-992.7698364257815	nan	nan	nan	nan	nan	nan	
915	4.57	57.86993408203126	1365.741821289063	-1223.244750976563	-65.83005523681642	1316.783447265625	-1269.143432617188	-124.7798080444336	1278.248291015625	-1139.647705078125	-139.5476837158203	1207.697998046875	-1189.036010742188	-367.1594848632813	1013.259338378906	-1169.270141601563	-64.15476989746095	1087.485107421875	-1193.947509765625	-77.0234832763672	1182.243041992188	-1316.617797851563	65.01695251464845	1135.493774414063	-1399.290649414063	94.04055786132814	1137.489135742188	-1359.005004882813	130.8118133544922	1112.395385742188	-1402.682983398438	183.7012939453125	1078.20556640625	-1407.113891601563	164.5050506591797	1021.185791015625	-1380.638916015625	450.4080810546876	1047.02587890625	-1289.607788085938	460.2318115234376	1055.321899414063	-1365.470092773438	541.4939575195314	1055.62646484375	-1283.003173828125	-62.03395843505861	1172.984375	-1073.274291992188	74.05044555664064	1101.265258789063	-984.6678466796877	106.1187057495117	1114.8681640625	-1019.183898925781	138.9169616699219	1074.919067382813	-987.8967285156252	199.0597534179688	1056.284545898438	-1000.386291503906	180.025375366211	995.5747680664065	-1040.264892578125	455.3736877441407	1055.805908203125	-1146.767211914063	469.4768676757814	1045.798583984375	-1073.009643554688	547.3976440429689	1063.002319335938	-1152.781127929688	-340.9133605957032	792.4951171875002	-1262.399291992188	-359.1707763671876	772.115173339844	-1045.246826171875	-487.8138427734376	909.9583740234377	-1158.35888671875	-513.5049438476564	890.770690917969	-1189.274169921875	-517.1381835937501	887.0273437500002	-1134.035034179688	-323.3279724121094	603.8402709960939	-1320.043701171875	-239.4093017578126	587.0767211914064	-1316.807983398438	-211.0736694335938	623.7563476562501	-1315.410766601563	-213.6702423095704	536.4419555664064	-1295.790649414063	-115.8345642089844	470.6113586425782	-1263.574462890625	-139.5871124267578	468.6622619628907	-1145.643676757813	-162.0019226074219	267.9641723632813	-1193.760986328125	-234.8535919189454	259.5115661621094	-1246.099853515625	-202.4475250244141	238.6504211425782	-1221.252807617188	-241.2278137207032	171.4980773925782	-1180.48486328125	-341.9387817382813	122.8077239990235	-1202.699951171875	-313.0342712402344	136.7904357910157	-1117.04052734375	-416.3193969726564	96.868766784668	-1155.740844726563	-202.8961181640626	52.32174301147462	-1131.902465820313	-202.2299194335938	48.62960433959962	-1177.232543945313	-254.7100219726563	39.55369186401368	-1227.493530273438	-449.7281494140626	534.1029052734376	-975.809997558594	-424.2562255859376	472.2148742675782	-978.6626586914065	-392.1257324218751	469.0671997070314	-987.2017211914065	-465.9249877929689	399.8980102539064	-983.9570312500002	-485.106414794922	300.8563537597657	-993.6165771484377	-504.090301513672	302.9490051269532	-1124.861206054688	-655.9035644531251	248.5061035156251	-1018.330200195313	-722.0234375000001	327.8922424316407	-981.2332153320315	-731.7440185546876	283.8041076660157	-996.3325805664065	-781.259948730469	278.4899291992188	-1028.598266601563	-889.578552246094	340.9588012695313	-996.4754028320315	-880.408386230469	334.6577453613282	-1086.457153320313	-921.0048828125002	418.9637145996095	-1043.672241210938	-971.7683715820315	208.1136322021485	-1087.314819335938	-971.6003417968752	201.2169189453126	-1046.621459960938	-991.9787597656252	239.0582122802735	-993.006286621094	nan	nan	nan	nan	nan	nan	
